
<svg width="105" height="105" viewBox="0 0 105 105" fill="none" xmlns="http://www.w3.org/2000/svg">
<path d="M68.125 21.25V83.75C68.125 86.8403 69.0414 89.8613 70.7583 92.4308C72.4752 95.0003 74.9155 97.003 77.7706 98.1856C80.6257 99.3682 83.7673 99.6777 86.7983 99.0748C89.8292 98.4719 92.6134 96.9837 94.7985 94.7985C96.9837 92.6134 98.4719 89.8292 99.0748 86.7983C99.6777 83.7673 99.3682 80.6257 98.1856 77.7706C97.003 74.9155 95.0003 72.4752 92.4308 70.7583C89.8613 69.0414 86.8403 68.125 83.75 68.125H21.25C18.1597 68.125 15.1387 69.0414 12.5692 70.7583C9.9997 72.4752 7.99701 74.9155 6.81439 77.7706C5.63177 80.6257 5.32234 83.7673 5.92524 86.7983C6.52813 89.8292 8.01627 92.6134 10.2015 94.7985C12.3867 96.9837 15.1708 98.4719 18.2017 99.0748C21.2327 99.6777 24.3743 99.3682 27.2294 98.1856C30.0845 97.003 32.5248 95.0003 34.2417 92.4308C35.9586 89.8613 36.875 86.8403 36.875 83.75V21.25C36.875 18.1597 35.9586 15.1387 34.2417 12.5692C32.5248 9.9997 30.0845 7.99701 27.2294 6.81439C24.3743 5.63177 21.2327 5.32234 18.2017 5.92524C15.1708 6.52813 12.3867 8.01627 10.2015 10.2015C8.01627 12.3867 6.52813 15.1708 5.92524 18.2017C5.32234 21.2327 5.63177 24.3743 6.81439 27.2294C7.99701 30.0845 9.9997 32.5248 12.5692 34.2417C15.1387 35.9586 18.1597 36.875 21.25 36.875H83.75C86.8403 36.875 89.8613 35.9586 92.4308 34.2417C95.0003 32.5248 97.003 30.0845 98.1856 27.2294C99.3682 24.3743 99.6777 21.2327 99.0748 18.2017C98.4719 15.1708 96.9837 12.3867 94.7985 10.2015C92.6134 8.01627 89.8292 6.52813 86.7983 5.92524C83.7673 5.32234 80.6257 5.63177 77.7706 6.81439C74.9155 7.99701 72.4752 9.9997 70.7583 12.5692C69.0414 15.1387 68.125 18.1597 68.125 21.25Z" stroke="#75FFBD" stroke-width="10.4167" stroke-linecap="round" stroke-linejoin="round"/>
</svg>
